# xmcd
#
# Track frame offsets:
#	150
#	14354
#	27495
#	44445
#	61635
#	75668
#	93156
#	124013
#	138484
#	150683
#	171999
#	188033
#	200952
#
# Disc length: 2886 seconds
#
# Revision: 0
# Processed by: cddbd v1.5.2PL0 Copyright (c) Steve Scherf et al.
# Submitted via: FairStars CD Ripper 1.90
#
DISCID=ac0b440d
DTITLE=Ralph De Jongh - Lonesome Man, Ocean Of Love
DYEAR=2016
DGENRE=Blues
TTITLE0=Ready For Change
TTITLE1=Both Feet On The Ground
TTITLE2=Let Me Look In Your Eyes
TTITLE3=Rye
TTITLE4=Life Is Good Enough
TTITLE5=Lonesome Man
TTITLE6=Love Is Not A Friend
TTITLE7=Soldier Boy
TTITLE8=One More Last Goodbye
TTITLE9=Worm
TTITLE10=Keeper Of The Key
TTITLE11=& Days A Week
TTITLE12=Feel Me
EXTD=
EXTT0=
EXTT1=
EXTT2=
EXTT3=
EXTT4=
EXTT5=
EXTT6=
EXTT7=
EXTT8=
EXTT9=
EXTT10=
EXTT11=
EXTT12=
PLAYORDER=
